<?xml version="1.0" standalone="no"?><!DOCTYPE svg PUBLIC "-//W3C//DTD SVG 1.1//EN" "http://www.w3.org/Graphics/SVG/1.1/DTD/svg11.dtd"><svg t="1770959833170" class="icon" viewBox="0 0 1024 1024" version="1.1" xmlns="http://www.w3.org/2000/svg" p-id="9744" width="32" height="32" xmlns:xlink="http://www.w3.org/1999/xlink"><path d="M472.436 116.364v791.272H209.455a93.09 93.09 0 0 1-93.091-93.09V209.454a93.09 93.09 0 0 1 93.09-93.091h262.982z m342.11 0a93.09 93.09 0 0 1 93.09 93.09v605.091a93.09 93.09 0 0 1-93.09 93.091H551.563V116.364h262.981z m-460.8 514.327H235.054a39.564 39.564 0 0 0 0 79.127h118.69a39.564 39.564 0 0 0 0-79.127z m435.2 0H670.254a39.564 39.564 0 0 0 0 79.127h118.69a39.564 39.564 0 0 0 0-79.127z m-435.2-158.255H235.054a39.564 39.564 0 0 0 0 79.128h118.69a39.564 39.564 0 0 0 0-79.128z m435.2 0H670.254a39.564 39.564 0 0 0 0 79.128h118.69a39.564 39.564 0 0 0 0-79.128z m-435.2-158.254H235.054a39.564 39.564 0 1 0 0 79.127h118.69a39.564 39.564 0 1 0 0-79.127z m435.2 0H670.254a39.564 39.564 0 0 0 0 79.127h118.69a39.564 39.564 0 0 0 0-79.127z" p-id="9745" fill="#dc2626"></path><path d="M850 850m-80 0a80 80 0 1 0 160 0 80 80 0 1 0-160 0Z" p-id="9746" fill="#dc2626"></path></svg>