<?xml version="1.0" standalone="no"?><!DOCTYPE svg PUBLIC "-//W3C//DTD SVG 1.1//EN" "http://www.w3.org/Graphics/SVG/1.1/DTD/svg11.dtd"><svg t="1770960201303" class="icon" viewBox="0 0 1226 1024" version="1.1" xmlns="http://www.w3.org/2000/svg" p-id="17726" width="38.3125" height="32" xmlns:xlink="http://www.w3.org/1999/xlink"><path d="M1213.912615 647.708132c15.506286 8.88967 15.641319 23.416967 0.135033 32.295384L703.330462 975.635692c-15.371253 8.878418-40.442374 8.878418-55.94866 0L254.627165 749.860571c-15.506286-8.878418-15.641319-23.416967-0.112528-32.295384L765.209319 422.068044c15.371253-8.88967 40.431121-8.88967 55.937406 0l392.754638 225.640088z" fill="#337DFF" p-id="17727"></path><path d="M1203.053714 492.937846a2.74567 2.74567 0 0 1 3.882198 3.353319c-5.176264 15.821363-17.441758 58.154198-17.441758 101.893626 0 42.962989 11.500308 61.226198 16.654066 67.280176 1.181538 1.282813 0.787692 3.330813-0.641407 4.242286L677.100308 976.400879c-1.170286 0.641407-3.105758 0.77644-4.005978-0.112527L544.272879 839.128615c-1.294066-1.294066-0.90022-3.477099 0.787692-4.377318l657.993143-341.824704z" fill="#FFDEDE" p-id="17728"></path><path d="M274.645802 569.09644l-0.517626 178.063472c-7.753143-4.501099-11.759121-10.431297-11.624088-16.226461l0.517626-178.176c0 5.930198 3.870945 11.849143 11.624088 16.338989" fill="#857373" p-id="17729"></path><path d="M287.957802 757.579956l-25.97134-9.137231V544.790505l25.97134 6.301539z" fill="#337DFF" p-id="17730"></path><path d="M280.722286 739.440527l0.517626-169.826461c0-0.258813 0.258813-0.382593 0.506374-0.258813l393.396044 229.893626c0.270066 0.135033 0.270066 0.393846 0 0.517626-3.218286 2.318066-23.236923 19.298462-23.236923 82.595165 0 59.954637 17.441758 87.478857 22.089142 93.656616 0.258813 0.258813-0.12378 0.641407-0.517626 0.517626L286.798769 750.625758s-4.276044-2.959473-5.176264-5.401318c-0.90022-2.318066-0.90022-5.783912-0.900219-5.783913" fill="#FFFFFF" p-id="17731"></path><path d="M1209.265231 489.71956l-533.605275 309.788132-394.420044-230.4c-15.506286-8.88967-22.224176-23.416967-6.71789-32.295384l490.94611-288.936792c15.371253-8.88967 40.431121-8.88967 55.937406 0l387.859693 241.855297z" fill="#DCBFBF" p-id="17732"></path><path d="M1213.912615 449.074637c15.506286 8.878418 15.641319 23.405714 0.135033 32.295385l-510.717186 295.497143c-15.371253 8.878418-40.442374 8.878418-55.94866 0L254.627165 551.092044c-15.506286-8.878418-15.641319-23.405714-0.112528-32.295385L765.209319 223.299516c15.371253-8.88967 40.431121-8.88967 55.937406 0l392.754638 225.775121z" fill="#337DFF" p-id="17733"></path><path d="M1225.412923 666.353934c-0.135033 0.652659-0.258813 1.294066-0.517626 1.935473 0 0.12378 0 0.12378-0.135033 0.258813-0.258813 0.641407-0.517626 1.282813-0.765187 1.800439 0 0.135033-0.135033 0.258813-0.135033 0.258814-0.382593 0.641407-0.641407 1.282813-1.159033 1.800439 0 0.12378-0.135033 0.12378-0.135033 0.258813a51.177495 51.177495 0 0 1-1.294066 1.67666c-0.12378 0.12378-0.12378 0.258813-0.258813 0.258813-0.517626 0.630154-1.159033 1.14778-1.80044 1.665406l-0.258813 0.258814c-0.652659 0.517626-1.294066 1.024-2.070505 1.541626-0.12378 0.12378-0.258813 0.12378-0.258814 0.258813-0.787692 0.517626-1.687912 1.035253-2.453098 1.541627L703.319209 975.635692c-0.90022 0.506374-1.80044 0.90022-2.70066 1.406594l-0.787692 0.393846c-0.77644 0.382593-1.676659 0.765187-2.588132 1.024-0.112527 0-0.24756 0.12378-0.382593 0.12378-0.90022 0.393846-1.935473 0.652659-2.835692 1.035253-0.652659 0.258813-1.294066 0.393846-2.070506 0.641406l-1.552879 0.382594a13.098198 13.098198 0 0 0-2.194286 0.517626l-1.552879 0.382594c-0.258813 0-0.382593 0.135033-0.641406 0.135033l-2.711913 0.382593c-0.258813 0-0.517626 0.135033-0.787692 0.135033-0.506374 0-1.024 0.12378-1.541626 0.12378-0.90022 0.135033-1.80044 0.135033-2.711912 0.135033h-5.682638c-0.652659 0-1.294066 0-2.070505-0.135033-0.641407 0-1.159033-0.12378-1.811693-0.12378-0.641407 0-1.282813-0.135033-1.935472-0.258813-0.641407-0.135033-1.159033-0.135033-1.80044-0.258813-0.652659-0.135033-1.429099-0.258813-2.070505-0.393847-0.517626-0.112527-1.159033-0.24756-1.687912-0.382593a17.891868 17.891868 0 0 1-2.453099-0.641407l-1.541626-0.382593c-0.258813-0.12378-0.517626-0.12378-0.787693-0.258813-0.765187-0.258813-1.676659-0.517626-2.441846-0.77644-0.258813-0.112527-0.528879-0.112527-0.652659-0.258813-0.787692-0.258813-1.417846-0.630154-2.070506-0.90022-0.382593-0.12378-0.641407-0.24756-1.035252-0.382593a50.277275 50.277275 0 0 1-2.835693-1.541626L281.746286 765.546901a25.858813 25.858813 0 0 1-13.053187-22.505494V600.615385c0-6.436571 6.976703-10.555077 12.670593-7.336792l365.883077 210.336352c0.90022 0.517626 1.946725 1.024 2.846945 1.541626 0.393846 0.135033 0.652659 0.258813 1.035253 0.393847 0.641407 0.258813 1.159033 0.517626 1.80044 0.776439 0.135033 0 0.270066 0.112527 0.270066 0.112528 0.24756 0.135033 0.517626 0.135033 0.641406 0.270066 0.77644 0.24756 1.552879 0.506374 2.453099 0.765186 0.258813 0.135033 0.517626 0.135033 0.77644 0.258814 0.135033 0 0.382593 0.12378 0.517626 0.12378 0.382593 0.135033 0.641407 0.135033 1.035253 0.258813 0.77644 0.258813 1.676659 0.393846 2.453099 0.652659 0.258813 0 0.393846 0.12378 0.652659 0.123781 0.382593 0.135033 0.641407 0.135033 1.012747 0.135032l2.081758 0.382594c0.258813 0 0.517626 0.12378 0.90022 0.12378 0.258813 0 0.652659 0 0.90022 0.12378 0.652659 0.135033 1.305319 0.135033 1.946725 0.258814 0.258813 0 0.641407 0.135033 0.90022 0.135032h0.90022c0.652659 0 1.294066 0.12378 1.946725 0.123781h5.682637c0.90022 0 1.80044-0.12378 2.711913-0.123781 0.393846 0 0.77644 0 1.035252-0.135032h0.77644c0.90022-0.12378 2.453099-0.382593 3.488352-0.506374 0.12378 0 0.258813 0 0.517626-0.12378h0.258813c0.382593-0.135033 0.90022-0.135033 1.282813-0.258814a14.290989 14.290989 0 0 0 2.205539-0.517626l1.541626-0.393846c0.652659-0.112527 1.429099-0.382593 2.070506-0.506374 0.135033 0 0.258813-0.135033 0.393846-0.135033 0.765187-0.258813 1.687912-0.517626 2.453099-0.900219 0.12378 0 0.258813-0.12378 0.382593-0.123781 0.90022-0.382593 1.687912-0.641407 2.588132-1.035252l0.776439-0.382594c0.90022-0.393846 1.80044-0.90022 2.70066-1.417846l510.728439-295.497143c0.12378-0.135033 0.393846-0.135033 0.517627-0.258813 0.765187-0.393846 1.417846-0.90022 2.059253-1.294066 0.135033-0.12378 0.270066-0.12378 0.270065-0.258813 0.77644-0.506374 1.417846-1.012747 2.059253-1.541626l0.258813-0.258814c0.135033-0.112527 0.258813-0.258813 0.393847-0.258813 0.517626-0.506374 1.024-0.90022 1.417846-1.406593 0.112527-0.12378 0.112527-0.258813 0.258813-0.258813 0.258813-0.258813 0.517626-0.641407 0.776439-0.90022 0.112527-0.258813 0.382593-0.517626 0.517627-0.765187 0-0.135033 0.12378-0.135033 0.12378-0.258813 0.258813-0.517626 0.652659-0.90022 0.90022-1.417846 0.135033-0.135033 0.135033-0.258813 0.258813-0.517627 0-0.12378 0.135033-0.258813 0.135033-0.258813a7.561846 7.561846 0 0 0 0.641407-1.541626c0-0.12378 0.135033-0.258813 0.135033-0.382594 0-0.135033 0-0.135033 0.112527-0.258813l0.405099-1.541626v-0.517627c0.112527-0.517626 0.112527-1.159033 0.112527-1.676659v-0.382593l0.270066-26.894066c0 0.641407-0.12378 1.294066-0.12378 2.070505v0.247561c-0.135033 0.652659-0.258813 1.282813-0.517626 1.935472 0 0.12378 0 0.12378-0.135033 0.258813-0.258813 0.641407-0.517626 1.282813-0.765187 1.80044 0 0.12378-0.135033 0.258813-0.135033 0.258813-0.382593 0.641407-0.641407 1.282813-1.159033 1.80044 0 0.12378-0.135033 0.12378-0.135033 0.24756a48.57811 48.57811 0 0 1-1.294066 1.676659c-0.12378 0.135033-0.12378 0.258813-0.258813 0.258814-0.517626 0.641407-1.159033 1.159033-1.80044 1.676659l-0.258813 0.258813a30.382418 30.382418 0 0 1-2.070505 1.541626c-0.12378 0.12378-0.258813 0.12378-0.258814 0.247561a39.564659 39.564659 0 0 1-2.453098 1.552879L703.319209 776.867165c-0.90022 0.517626-1.80044 0.90022-2.70066 1.417846l-0.787692 0.382593c-0.77644 0.393846-1.676659 0.77644-2.588132 1.035253-0.112527 0-0.24756 0.12378-0.382593 0.12378-0.90022 0.393846-1.935473 0.641407-2.835692 1.024-0.652659 0.258813-1.294066 0.393846-2.070506 0.65266l-1.552879 0.382593a13.930901 13.930901 0 0 0-2.194286 0.517626l-1.552879 0.382594c-0.12378 0-0.258813 0-0.517626 0.12378-0.90022 0.135033-2.453099 0.393846-3.353319 0.517626h-0.393846c-0.517626 0-1.024 0.135033-1.541626 0.135033-0.911473 0.12378-1.811692 0.12378-2.711913 0.123781h-5.69389c-0.641407 0-1.282813 0-2.059252-0.123781-0.652659 0-1.170286-0.135033-1.811693-0.135033a10.048703 10.048703 0 0 1-1.935472-0.24756c-0.652659-0.135033-1.170286-0.135033-1.811693-0.270066-0.641407-0.112527-1.417846-0.24756-2.070505-0.382593-0.517626-0.12378-1.159033-0.24756-1.687912-0.382594a16.879121 16.879121 0 0 1-2.441846-0.641406l-1.552879-0.393846c-0.258813-0.12378-0.517626-0.12378-0.787693-0.258814-0.765187-0.24756-1.665407-0.506374-2.441846-0.765186-0.258813-0.12378-0.517626-0.12378-0.641406-0.258814-0.787692-0.258813-1.429099-0.641407-2.070506-0.900219-0.382593-0.12378-0.641407-0.258813-1.035253-0.382594a56.64633 56.64633 0 0 1-2.846945-1.541626L254.492132 551.227077c-7.753143-4.501099-11.759121-10.420044-11.635341-16.215209l-0.112527 22.899341h-0.146286v203.517187l0.135033 0.12378c0.382593 5.536352 4.264791 11.072703 11.635341 15.314989l392.754637 225.775121c0.90022 0.517626 1.935473 1.035253 2.835692 1.552879 0.393846 0.112527 0.652659 0.258813 1.035253 0.382593 0.652659 0.258813 1.170286 0.517626 1.80044 0.77644 0.146286 0 0.270066 0.12378 0.270066 0.12378 0.258813 0.135033 0.517626 0.135033 0.652659 0.258813 0.765187 0.24756 1.541626 0.506374 2.453099 0.765187 0.258813 0.135033 0.517626 0.135033 0.776439 0.258813 0.112527 0 0.382593 0.135033 0.506374 0.135033 0.393846 0.12378 0.652659 0.12378 1.046505 0.258813 0.765187 0.258813 1.676659 0.382593 2.453099 0.641407 0.24756 0 0.382593 0.12378 0.641407 0.12378a2.925714 2.925714 0 0 0 1.035253 0.135033c0.641407 0.12378 1.417846 0.24756 2.070505 0.382594 0.258813 0 0.506374 0.12378 0.90022 0.12378 0.258813 0 0.641407 0 0.90022 0.135033 0.652659 0.12378 1.294066 0.12378 1.935472 0.258813 0.258813 0 0.652659 0.12378 0.90022 0.12378h0.90022c0.652659 0 1.305319 0.12378 2.081758 0.12378h5.682637c0.90022 0 1.80044-0.112527 2.711913-0.112527 0.393846 0 0.77644 0 1.035252-0.135033h0.517627c0.258813 0 0.517626 0 0.776439-0.135033l2.70066-0.382593c0.270066 0 0.528879-0.135033 0.652659-0.135033h0.258813c0.393846-0.112527 0.90022-0.112527 1.294066-0.247561 0.77644-0.135033 1.417846-0.258813 2.194286-0.517626l1.552879-0.382594c0.641407-0.135033 1.417846-0.393846 2.070505-0.652659 0.12378 0 0.258813-0.12378 0.382594-0.12378 0.77644-0.258813 1.687912-0.517626 2.453099-0.90022 0.135033 0 0.258813-0.12378 0.393846-0.12378 0.90022-0.393846 1.676659-0.641407 2.588132-1.035253l0.765187-0.382593c0.90022-0.393846 1.811692-0.90022 2.711912-1.417847l510.728439-295.497142c0.112527-0.135033 0.382593-0.135033 0.517627-0.270066 0.765187-0.371341 1.417846-0.90022 2.059252-1.282813 0.12378-0.12378 0.258813-0.12378 0.258813-0.258814 0.77644-0.506374 1.417846-1.024 2.070506-1.541626l0.258813-0.24756c0.112527-0.135033 0.258813-0.258813 0.382594-0.258814 0.517626-0.517626 1.035253-0.90022 1.429098-1.417846 0.112527-0.135033 0.112527-0.258813 0.247561-0.258813 0.258813-0.258813 0.517626-0.641407 0.776439-0.90022 0.135033-0.258813 0.393846-0.517626 0.517627-0.776439 0-0.12378 0.135033-0.12378 0.135033-0.258814 0.258813-0.517626 0.641407-0.90022 0.90022-1.406593 0.135033-0.135033 0.135033-0.258813 0.258813-0.517626 0-0.135033 0.12378-0.258813 0.12378-0.258814a7.899429 7.899429 0 0 0 0.652659-1.541626c0-0.135033 0.112527-0.258813 0.112528-0.382593 0-0.135033 0-0.135033 0.146286-0.258813l0.382593-1.541627v-0.517626a7.179253 7.179253 0 0 0 0.135033-1.67666v-0.382593l0.112527-26.759033c0 0.641407-0.112527 1.282813-0.112527 2.048 0.258813-0.24756 0.258813-0.112527 0.258813 0" fill="#99BEFF" p-id="17734"></path><path d="M1116.621363 434.277275c15.506286 8.878418 15.641319 23.416967 0.135033 32.295384l-510.717187 295.497143c-15.371253 8.88967-40.442374 8.88967-55.937407 0L157.335912 536.305934c-15.506286-8.867165-15.641319-23.405714-0.135033-32.295385l510.72844-295.497142c15.371253-8.867165 40.431121-8.867165 55.926154 0l392.76589 225.77512z" fill="#337DFF" p-id="17735"></path><path d="M1105.773714 279.383209a2.74567 2.74567 0 0 1 3.870945 3.353318c-5.165011 15.821363-17.441758 58.142945-17.441758 101.882374 0 42.974242 11.500308 61.248703 16.665319 67.291429 1.159033 1.282813 0.787692 3.342066-0.641407 4.242285l-528.429011 306.693627c-1.14778 0.641407-3.083253 0.77644-3.994725-0.12378L446.992879 625.585231c-1.294066-1.294066-0.90022-3.488352 0.787692-4.377319l657.993143-341.824703z" fill="#FFDEDE" p-id="17736"></path><path d="M177.354549 355.553055l-0.506373 178.040967c-7.764396-4.501099-11.759121-10.420044-11.635341-16.203956l0.517627-178.05222c-0.135033 5.795165 3.882198 11.702857 11.624087 16.203956" fill="#857373" p-id="17737"></path><path d="M190.666549 544.014066l-25.97134-9.125978V331.359648l25.97134 6.177759z" fill="#337DFF" p-id="17738"></path><path d="M183.431033 525.874637l0.517626-169.803956c0-0.258813 0.258813-0.393846 0.517627-0.258813l393.396044 229.893627c0.270066 0.12378 0.270066 0.382593 0 0.506373-3.218286 2.318066-23.248176 19.298462-23.248176 82.595165 0 59.943385 17.441758 87.478857 22.100395 93.656615 0.258813 0.258813-0.135033 0.641407-0.517626 0.517627L189.496264 537.071121s-4.276044-2.959473-5.176264-5.401319c-1.024-2.318066-0.90022-5.795165-0.90022-5.795165" fill="#FFFFFF" p-id="17739"></path><path d="M1111.973978 276.164923L578.391209 585.953055 183.948659 355.553055c-15.506286-8.88967-22.224176-23.416967-6.71789-32.295385L668.188132 34.320879c15.371253-8.88967 40.431121-8.88967 55.926154 0l387.859692 241.844044z" fill="#DCBFBF" p-id="17740"></path><path d="M1116.621363 235.52c15.506286 8.878418 15.641319 23.405714 0.135033 32.295385L606.039209 563.436308c-15.371253 8.867165-40.442374 8.867165-55.937407 0L157.335912 337.67244c-15.506286-8.88967-15.641319-23.416967-0.135033-32.295385L667.929319 9.879912c15.371253-8.88967 40.431121-8.88967 55.926154 0L1116.632615 235.52z" fill="#337DFF" p-id="17741"></path><path d="M1127.99789 452.810549c-0.135033 0.641407-0.258813 1.282813-0.517626 1.92422 0 0.12378 0 0.12378-0.135033 0.258813a23.552 23.552 0 0 1-0.765187 1.80044c0 0.135033-0.135033 0.258813-0.135033 0.258813-0.393846 0.641407-0.641407 1.282813-1.159033 1.80044 0 0.135033-0.135033 0.135033-0.135033 0.258813a64.512 64.512 0 0 1-1.282813 1.665407c-0.135033 0.135033-0.135033 0.258813-0.270066 0.258813-0.517626 0.652659-1.159033 1.159033-1.80044 1.676659l-0.258813 0.258813c-0.652659 0.506374-1.294066 1.024-2.070505 1.541627-0.12378 0.12378-0.258813 0.12378-0.258813 0.258813-0.787692 0.517626-1.687912 1.024-2.453099 1.541626L606.039209 762.069802c-0.90022 0.517626-1.811692 0.90022-2.711912 1.417846l-0.787693 0.393847a15.416264 15.416264 0 0 1-2.576879 1.024c-0.12378 0-0.258813 0.12378-0.382593 0.12378-0.90022 0.393846-1.946725 0.652659-2.846945 1.035252-0.641407 0.258813-1.294066 0.382593-2.070506 0.641407l-1.541626 0.382593a13.750857 13.750857 0 0 0-2.194286 0.517627l-1.552879 0.382593c-0.258813 0-0.393846 0.135033-0.652659 0.135033l-2.70066 0.382594c-0.270066 0-0.528879 0.135033-0.787692 0.135033-0.517626 0-1.024 0.112527-1.541626 0.112527-0.90022 0.146286-1.811692 0.146286-2.711912 0.146286h-5.69389c-0.641407 0-1.294066 0-2.059253-0.135033-0.652659 0-1.170286-0.12378-1.811693-0.12378-0.652659 0-1.294066-0.135033-1.935472-0.258814-0.652659-0.135033-1.170286-0.135033-1.811692-0.258813-0.641407-0.135033-1.429099-0.258813-2.070506-0.382593-0.517626-0.135033-1.159033-0.258813-1.687912-0.393846a16.980396 16.980396 0 0 1-2.441846-0.641407l-1.552879-0.382593c-0.258813-0.12378-0.517626-0.12378-0.787693-0.258814-0.765187-0.258813-1.665407-0.517626-2.441846-0.776439-0.258813-0.12378-0.517626-0.12378-0.641406-0.258813-0.787692-0.258813-1.429099-0.641407-2.070506-0.90022-0.382593-0.112527-0.652659-0.24756-1.035252-0.382593a53.653099 53.653099 0 0 1-2.846946-1.541627l-365.624263-210.201319a25.858813 25.858813 0 0 1-13.053187-22.516747V387.060747c0-6.425319 6.976703-10.543824 12.659341-7.314285l365.894329 210.325098c0.90022 0.517626 1.935473 1.024 2.835693 1.541627 0.393846 0.135033 0.652659 0.258813 1.035252 0.393846 0.641407 0.258813 1.170286 0.517626 1.80044 0.765187 0.135033 0 0.270066 0.12378 0.270066 0.12378 0.258813 0.135033 0.517626 0.135033 0.641406 0.258813 0.787692 0.258813 1.552879 0.517626 2.453099 0.787692 0.270066 0.12378 0.517626 0.12378 0.787693 0.247561 0.112527 0 0.382593 0.12378 0.506373 0.12378 0.393846 0.135033 0.652659 0.135033 1.035253 0.258813 0.77644 0.258813 1.687912 0.393846 2.453099 0.65266 0.258813 0 0.393846 0.112527 0.652659 0.112527a2.779429 2.779429 0 0 0 1.024 0.146286l2.070506 0.371341c0.270066 0 0.517626 0.135033 0.900219 0.135032a2.250549 2.250549 0 0 1 0.90022 0.123781c0.663912 0.135033 1.305319 0.135033 1.957978 0.258813 0.24756 0 0.641407 0.135033 0.90022 0.135033h0.90022c0.652659 0 1.294066 0.12378 1.935472 0.12378h5.69389c0.90022 0 1.80044-0.112527 2.70066-0.112527 0.393846 0 0.787692 0 1.046505-0.146286h0.765187c0.90022-0.112527 2.464352-0.382593 3.488352-0.517626 0.135033 0 0.258813 0 0.517626-0.112528h0.258813c0.393846-0.135033 0.90022-0.135033 1.294066-0.258813 0.77644-0.135033 1.417846-0.258813 2.194286-0.517627l1.552879-0.393846c0.641407-0.12378 1.417846-0.382593 2.070506-0.506373 0.12378 0 0.258813-0.135033 0.382593-0.135033 0.77644-0.258813 1.687912-0.517626 2.453099-0.90022 0.135033 0 0.258813-0.135033 0.393846-0.135033 0.90022-0.371341 1.676659-0.630154 2.576879-1.024l0.787692-0.382593c0.90022-0.393846 1.80044-0.90022 2.70066-1.417847l510.717187-295.497142c0.135033-0.135033 0.393846-0.135033 0.517626-0.258814 0.77644-0.382593 1.429099-0.90022 2.070506-1.294066 0.135033-0.12378 0.258813-0.12378 0.258813-0.258813a30.382418 30.382418 0 0 0 2.070505-1.530373l0.258813-0.270066c0.112527-0.112527 0.24756-0.24756 0.382594-0.247561 0.517626-0.517626 1.035253-0.90022 1.417846-1.417846 0.135033-0.135033 0.135033-0.258813 0.270066-0.258813 0.24756-0.258813 0.506374-0.641407 0.765187-0.90022 0.135033-0.258813 0.393846-0.517626 0.517626-0.776439 0-0.112527 0.135033-0.112527 0.135033-0.258814 0.258813-0.506374 0.641407-0.90022 0.90022-1.406593 0.135033-0.135033 0.135033-0.258813 0.258813-0.517626 0-0.12378 0.135033-0.258813 0.135033-0.258814 0.24756-0.517626 0.517626-1.024 0.641407-1.541626 0-0.12378 0.112527-0.258813 0.112527-0.382593 0-0.135033 0-0.135033 0.146286-0.258814l0.382593-1.552879v-0.506373c0.135033-0.517626 0.135033-1.159033 0.135033-1.67666v-0.382593l0.12378-26.759033c0 0.641407-0.12378 1.294066-0.12378 2.059253v0.258813c-0.135033 0.641407-0.258813 1.282813-0.517626 1.92422 0 0.135033 0 0.135033-0.135033 0.258813a23.923341 23.923341 0 0 1-0.90022 2.059253c-0.393846 0.641407-0.641407 1.282813-1.159033 1.800439 0 0.12378-0.135033 0.12378-0.135033 0.258813a75.168352 75.168352 0 0 1-1.282813 1.67666c-0.135033 0.12378-0.135033 0.258813-0.270066 0.258813-0.517626 0.630154-1.159033 1.14778-1.80044 1.665407l-0.258813 0.258813c-0.652659 0.517626-1.294066 1.024-2.070505 1.541626-0.12378 0.135033-0.258813 0.135033-0.258813 0.258813a41.747692 41.747692 0 0 1-2.453099 1.541627L606.039209 563.44756c-0.90022 0.506374-1.811692 0.90022-2.711912 1.417847l-0.787693 0.382593c-0.765187 0.382593-1.676659 0.765187-2.576879 1.024-0.12378 0-0.258813 0.135033-0.382593 0.135033-0.90022 0.382593-1.946725 0.641407-2.846945 1.012747-0.641407 0.270066-1.294066 0.405099-2.070506 0.663912l-1.541626 0.382594a13.199473 13.199473 0 0 0-2.194286 0.506373l-1.552879 0.382594c-0.135033 0-0.258813 0-0.517626 0.135033-0.911473 0.12378-2.453099 0.382593-3.375824 0.517626h-0.371341c-0.517626 0-1.035253 0.12378-1.552879 0.12378-0.90022 0.135033-1.811692 0.135033-2.711912 0.135033h-5.682638c-0.641407 0-1.294066 0-2.070505-0.135033-0.641407 0-1.159033-0.12378-1.80044-0.12378-0.652659 0-1.294066-0.135033-1.946725-0.258813-0.652659-0.135033-1.159033-0.135033-1.80044-0.258813-0.652659-0.135033-1.429099-0.258813-2.081758-0.393846-0.506374-0.112527-1.159033-0.24756-1.676659-0.382594a17.779341 17.779341 0 0 1-2.453099-0.630154l-1.552879-0.393846c-0.258813-0.12378-0.506374-0.12378-0.77644-0.258813-0.765187-0.258813-1.676659-0.517626-2.453099-0.77644-0.258813-0.112527-0.506374-0.112527-0.641406-0.24756-0.77644-0.258813-1.429099-0.652659-2.070506-0.90022-0.382593-0.135033-0.641407-0.258813-1.035252-0.382593-1.024-0.517626-1.935473-1.035253-2.835693-1.552879L157.200879 337.807473c-7.753143-4.501099-11.759121-10.420044-11.624088-16.203957l-0.135033 22.888088h-0.12378V548.008791l0.12378 0.12378c0.393846 5.536352 4.276044 11.061451 11.635341 15.303737l392.754637 225.786373c0.90022 0.517626 1.946725 1.035253 2.846945 1.541627 0.382593 0.12378 0.641407 0.258813 1.035253 0.382593 0.641407 0.258813 1.159033 0.517626 1.80044 0.787692 0.135033 0 0.258813 0.112527 0.258813 0.112528 0.270066 0.135033 0.517626 0.135033 0.652659 0.258813 0.77644 0.258813 1.552879 0.517626 2.453099 0.77644 0.258813 0.12378 0.517626 0.12378 0.77644 0.24756 0.12378 0 0.393846 0.135033 0.517626 0.135033 0.382593 0.12378 0.641407 0.12378 1.035253 0.258813 0.77644 0.24756 1.676659 0.382593 2.453099 0.641407 0.258813 0 0.382593 0.12378 0.641406 0.12378a2.74567 2.74567 0 0 0 1.035253 0.135033l2.070505 0.382593c0.258813 0 0.517626 0.135033 0.90022 0.135033 0.258813 0 0.652659 0 0.90022 0.123781 0.652659 0.135033 1.305319 0.135033 1.946725 0.258813 0.258813 0 0.641407 0.12378 0.90022 0.12378h0.90022c0.652659 0 1.305319 0.135033 2.070505 0.135033h5.69389c0.90022 0 1.80044-0.135033 2.70066-0.135033 0.393846 0 0.787692 0 1.046505-0.12378h0.506374c0.258813 0 0.517626 0 0.776439-0.12378l2.711913-0.393847c0.258813 0 0.517626-0.12378 0.652659-0.12378h0.258813c0.382593-0.135033 0.90022-0.135033 1.294066-0.258813 0.765187-0.135033 1.417846-0.258813 2.194286-0.517626l1.541626-0.382594a12.378022 12.378022 0 0 0 2.070506-0.641406c0.135033 0 0.258813-0.12378 0.393846-0.123781 0.765187-0.258813 1.676659-0.517626 2.453099-0.900219 0.12378 0 0.258813-0.135033 0.382593-0.135033 0.90022-0.393846 1.687912-0.641407 2.588132-1.035253l0.77644-0.382593c0.90022-0.382593 1.80044-0.90022 2.711912-1.417847l510.717186-295.497143c0.12378-0.135033 0.393846-0.135033 0.517627-0.258813 0.77644-0.393846 1.417846-0.90022 2.070505-1.282813 0.112527-0.135033 0.258813-0.135033 0.258813-0.258813 0.77644-0.517626 1.417846-1.035253 2.059253-1.552879l0.258813-0.258813c0.135033-0.112527 0.258813-0.24756 0.382594-0.247561 0.528879-0.517626 1.035253-0.90022 1.429099-1.417846 0.12378-0.135033 0.12378-0.258813 0.258813-0.258813 0.258813-0.258813 0.517626-0.641407 0.776439-0.90022 0.112527-0.24756 0.382593-0.506374 0.517627-0.765187 0-0.135033 0.112527-0.135033 0.112527-0.258813 0.270066-0.517626 0.663912-0.90022 0.911473-1.417846 0.135033-0.12378 0.135033-0.258813 0.270066-0.517626 0-0.12378 0.112527-0.258813 0.112527-0.258814a8.090725 8.090725 0 0 0 0.663912-1.541626c0-0.135033 0.112527-0.258813 0.112528-0.393846 0-0.112527 0-0.112527 0.135033-0.247561l0.393846-1.541626v-0.517626c0.112527-0.517626 0.112527-1.159033 0.112527-1.665407v-0.393846l0.146286-26.759033c0 0.652659-0.135033 1.294066-0.135033 2.059253l0.135033-0.135033z" fill="#99BEFF" p-id="17742"></path><path d="M1084.202198 216.997978L851.889231 351.299516c-4.276044 2.441846-9.823648 0.393846-11.252747-4.242285l-28.672-87.61389-133.074989-10.285011c-7.61811-0.641407-9.947429-10.555077-3.353319-14.403517L894.660923 108.026374l189.530022 108.960351z" fill="#FFE872" p-id="17743"></path><path d="M26.05011 407.011868l-25.509978 7.032967 0.225055-7.899428a12.378022 12.378022 0 0 0-0.225055 7.899428l157.909802 570.671824 25.915077-7.044219-157.043341-567.025935c-0.427604-1.294066-0.855209-2.363077-1.27156-3.64589" fill="#FFFFFF" p-id="17744"></path><path d="M26.05011 407.011868a13.210725 13.210725 0 0 0-16.293978-9.170989 13.975912 13.975912 0 0 0-9.002198 8.304528l-0.213802 7.899428 25.509978-7.04422z" fill="#FFFFFF" p-id="17745"></path><path d="M29.257143 319.544264l-12.850638 3.409582-12.86189 3.409583-2.779428 79.579428c1.282813-3.84844 4.501099-7.04422 9.002198-8.327033 7.066725-1.912967 14.347253 2.138022 16.282725 9.182242-1.935473-7.04422 2.138022-14.290989 9.204747-16.226462 7.066725-1.912967 14.358505 2.138022 16.282725 9.182242a13.120703 13.120703 0 0 1 5.513847-14.651077c4.883692-3.150769 11.252747-2.734418 15.697582 1.001495L29.257143 319.544264z" fill="#FCA360" p-id="17746"></path><path d="M5.266286 282.218901l-1.721671 44.35833 12.86189-3.409583 12.850638-3.623384z" fill="#313145" p-id="17747"></path><path d="M51.751385 403.804835l157.04334 567.04844 25.92633-7.04422L76.822505 393.137231l-25.498725 7.04422c0.427604 1.057758 0.427604 2.340571 0.427605 3.623384" fill="#FFFFFF" p-id="17748"></path><path d="M76.822505 393.137231a12.850637 12.850637 0 0 0-4.276043-6.605363l4.276043 6.605363z" fill="#EFE9D5" p-id="17749"></path><path d="M60.53978 383.977495c-7.077978 1.912967-11.14022 9.159736-9.227253 16.203956l25.509978-7.04422-4.276043-6.616616a13.244484 13.244484 0 0 0-12.006682-2.54312" fill="#FFFFFF" p-id="17750"></path><path d="M51.751385 403.804835c0-1.282813 0-2.565626-0.427605-3.825934a13.199473 13.199473 0 0 0-16.282725-9.182242 13.154462 13.154462 0 0 0-7.719385 19.624792l157.043341 567.037186 12.220484-3.409582 12.20923-3.409582L51.751385 403.804835z" fill="#313145" p-id="17751"></path><path d="M284.840791 345.999473c-12.41178-1.710418-32.126593 60.798593-51.2 155.512967l29.144616 4.050989 22.055384-159.563956z" fill="#FFFFFF" p-id="17752"></path><path d="M310.350769 161.66822l-3.859692 27.951824c3.64589-16.203956 3.84844-27.951824 3.848439-27.951824" fill="#00BEC5" p-id="17753"></path><path d="M310.350769 161.66822s-0.225055 11.747868-3.859692 27.951824a175.43033 175.43033 0 0 1-13.717099 39.68844c-12.636835 24.958593-41.770198 46.923956-44.774681 68.259164a43.053011 43.053011 0 0 0 36.841494 48.431825c23.574505 3.19578 45.427341-13.233231 48.645627-36.683957 3.218286-23.473231-2.565626-104.12167-23.146902-147.636043" fill="#FD595E" p-id="17754"></path><path d="M291.918769 509.411868c7.29178-96.210989 5.356308-161.701978-7.077978-163.412395l-22.055384 159.361406 29.133362 4.050989z" fill="#FFFFFF" p-id="17755"></path><path d="M262.785407 505.360879l-29.144616-4.050989c-9.632352 47.565363-19.062154 103.457758-27.422945 163.198594-24.846066 178.558593-29.774769 325.328176-11.14022 327.893802 18.645802 2.554374 53.990681-140.16422 78.622945-318.734066a2811.273846 2811.273846 0 0 0 18.218198-164.481407l-29.144615-3.825934z" fill="#FD595E" p-id="17756"></path><path d="M33.263121 770.194286l-10.600088-93.679121 154.218901-29.662242 159.338901 24.339692-13.390769 119.661715z" fill="#FFFFFF" p-id="17757"></path><path d="M295.553407 716.124835l-38.979517 28.581978-38.990769-28.581978-39.002022 28.581978-38.990769-28.581978-38.979517 28.581978-39.002022-28.581978-31.924044 23.473231 28.919561 251.723956c1.72167 15.573802 16.282725 28.379429 31.924044 28.379429H270.290989c15.843868 0 29.988571-12.805626 31.698989-28.379429l26.556484-251.082549-32.993055-24.114638z m17.77934-104.099165H44.054505c-15.866374 0-27.209143 12.794374-25.498725 28.379429l4.118506 36.121319 2.959472 25.948835 36.200088-26.443956 38.990769 28.581978 38.99077-28.581978 39.002022 28.581978 38.979516-28.581978 38.990769 28.581978 39.002022-28.581978 36.841495 27.085362 6.639121-62.71156c1.507868-15.585055-10.059956-28.379429-25.915077-28.379429z" fill="#FCA360" p-id="17758"></path></svg>